<svg width="20" height="17" viewBox="0 0 20 17" fill="none" xmlns="http://www.w3.org/2000/svg">
<path fill-rule="evenodd" clip-rule="evenodd" d="M2.10972 3.56506C2.07274 3.70226 2.05273 3.84853 2.05273 4.00174V12.996C2.05273 13.8877 2.73046 14.5445 3.48705 14.5445H16.5929C17.3495 14.5445 18.0272 13.8877 18.0272 12.996V4.00174C18.0272 3.95767 18.0256 3.91417 18.0223 3.8713L10.4404 8.65833C10.1885 8.81735 9.86645 8.81226 9.61975 8.64537L2.10972 3.56506ZM3.19264 2.48665L10.0541 7.12824L17.2144 2.60746C17.0234 2.50802 16.8115 2.45322 16.5929 2.45322H3.48705C3.38707 2.45322 3.28848 2.46468 3.19264 2.48665ZM0.552734 4.00174C0.552734 2.35457 1.83091 0.953217 3.48705 0.953217H16.5929C18.2491 0.953217 19.5272 2.35457 19.5272 4.00174V12.996C19.5272 14.6431 18.2491 16.0445 16.5929 16.0445H3.48705C1.83091 16.0445 0.552734 14.6431 0.552734 12.996V4.00174Z" fill="white"/>
</svg>
